<svg id="Capa_1" enable-background="new 0 0 512 512" height="512" viewBox="0 0 512 512" width="512" xmlns="http://www.w3.org/2000/svg"><g><path d="m447.7 102.7c-12.301-13.8-26.7-36.3-26.7-65.7v-6c0-8.401-6.599-15-15-15h-150-150c-8.401 0-15 6.599-15 15v6c0 29.4-14.399 51.9-26.7 65.7-12.599 14.399-23.399 30-32.399 46.8l40.984 46.5h183.115 178.268l45.233-47.401c-8.702-16.499-19.501-31.799-31.801-45.899z" fill="#f3fbff"/><path d="m479.5 148.599c-8.701-16.5-19.501-31.8-31.8-45.899-12.301-13.8-26.7-36.3-26.7-65.7v-6c0-8.401-6.599-15-15-15h-150v180h178.268z" fill="#e0f4fe"/><path d="m479.5 148.599c-6.301-3.3-13.2-5.7-20.099-7.5-26.102-6.301-53.701-1.5-75.901 13.5-22.5 14.7-51 14.7-73.5 0-16.419-10.946-35.224-16.295-54-16.146-18.272.143-36.519 5.491-52.5 16.146-22.5 14.7-51 14.7-73.5 0-24-16.201-53.699-20.4-81.299-12.001-6 1.8-11.4 4.2-16.8 6.901-21.101 38.082-31.901 82.318-31.901 121.501 0 57.341 20.373 111.868 54.256 155.819l201.744-.011 201.758-.011c33.873-43.947 54.242-98.465 54.242-155.797 0-39.119-11.031-84.683-32.5-122.401z" fill="#b7e4f8"/><path d="m512 271c0-39.119-11.031-84.683-32.5-122.401-6.301-3.3-13.2-5.7-20.099-7.5-26.102-6.301-53.701-1.5-75.901 13.5-22.5 14.7-51 14.7-73.5 0-16.419-10.946-35.224-16.295-54-16.146v288.354l201.758-.011c33.873-43.946 54.242-98.464 54.242-155.796z" fill="#6fc8f1"/><g><path d="m145.302 442.533c-3.677 0-7.354-1.333-10.239-4.043-6.05-5.654-6.372-15.146-.718-21.196 2.71-2.9 5.757-5.493 9.082-7.705 5.962-3.97 9.375-10.356 9.375-17.52s-3.413-13.55-9.375-17.52c-14.238-9.492-22.734-25.371-22.734-42.48s8.496-32.988 22.734-42.48c5.962-3.97 9.375-10.356 9.375-17.52 0-8.291 6.709-15 15-15s15 6.709 15 15c0 17.109-8.496 33.003-22.734 42.48-5.962 3.97-9.375 10.356-9.375 17.52s3.413 13.55 9.375 17.52c14.238 9.492 22.734 25.371 22.734 42.48s-8.496 32.988-22.734 42.48c-1.392.938-2.681 2.021-3.809 3.223-2.945 3.165-6.944 4.761-10.957 4.761z" fill="#59c36a"/></g><g><path d="m328.759 438.871c-5.332 0-10.474-2.842-13.198-7.852-3.955-7.28-1.245-16.377 6.035-20.332 6.768-3.677 10.84-10.107 11.191-17.637.337-7.456-3.164-14.37-9.36-18.501-14.238-9.492-22.734-25.371-22.734-42.48s8.496-32.988 22.734-42.48c5.962-3.97 9.375-10.356 9.375-17.52 0-8.291 6.709-15 15-15s15 6.709 15 15c0 17.109-8.496 33.003-22.734 42.48-5.962 3.97-9.375 10.356-9.375 17.52s3.413 13.55 9.375 17.52c15.029 10.02 23.511 26.777 22.69 44.824-.82 18.018-10.869 33.955-26.865 42.642-2.271 1.23-4.717 1.816-7.134 1.816z" fill="#00a66c"/></g><path d="m250.067 349.589c-5.962-3.97-9.375-10.356-9.375-17.52s3.413-13.55 9.375-17.52c2.208-1.47 4.01-3.347 5.933-5.107 10.468-9.586 16.802-22.919 16.802-37.374 0-8.291-6.709-15-15-15-.639 0-1.183.286-1.802.363-7.399.928-13.198 6.985-13.198 14.637 0 7.163-3.413 13.55-9.375 17.52-14.238 9.492-22.734 25.371-22.734 42.48s8.496 32.988 22.734 42.48c5.801 3.867 9.214 10.078 9.375 17.036.146 6.973-2.959 13.315-8.54 17.402-6.68 4.907-8.115 14.297-3.223 20.977 2.944 3.999 7.5 6.123 12.114 6.123 3.076 0 6.182-.938 8.862-2.9 1.49-1.095 2.637-2.512 3.984-3.748 10.746-9.86 17.126-23.727 16.787-38.527-.308-13.987-6.619-26.904-16.787-36.233-1.918-1.758-3.733-3.622-5.932-5.089z" fill="#59c36a"/><path d="m272.802 272.069c0-8.291-6.709-15-15-15-.639 0-1.183.286-1.802.363v52.011c10.468-9.586 16.802-22.919 16.802-37.374z" fill="#00a66c"/><path d="m272.787 390.912c-.308-13.987-6.619-26.904-16.787-36.233v74.76c10.746-9.86 17.126-23.726 16.787-38.527z" fill="#00a66c"/><path d="m256 406c-84.54 0-159.009 12.125-201.744 20.819 22.169 28.749 48.779 51.066 78.144 67.381 2.401 1.199 4.799 1.8 7.2 1.8h116.4 116.4c2.401 0 4.799-.601 7.2-1.8 29.817-16.566 56.318-39.067 78.159-67.403-44.329-9.067-117.648-20.797-201.759-20.797z" fill="#704c55"/><path d="m379.6 494.2c29.817-16.566 56.318-39.067 78.159-67.403-44.329-9.067-117.648-20.797-201.759-20.797v90h116.4c2.401 0 4.799-.601 7.2-1.8z" fill="#5a344b"/></g></svg>